<svg width="133" height="33" viewBox="0 0 133 33" fill="none" xmlns="http://www.w3.org/2000/svg">
<g filter="url(#filter0_d)">
<mask id="path-1-outside-1" maskUnits="userSpaceOnUse" x="4" y="0" width="125" height="25" fill="black">
<rect fill="white" x="4" width="125" height="25"/>
<path d="M11.0586 11.3125H9.11328V18.0625H5V1H9.11328V7.59766H10.6953L13.9766 1H18.957L14.2695 8.875L19.543 18.0625H14.6797L11.0586 11.3125Z"/>
<path d="M27.7578 5.38281H31.7188V18.0625H27.7578V10.6797L24.2773 18.0625H20.3047V5.38281H24.2773V12.7422L27.7578 5.38281Z"/>
<path d="M45.125 18.0625H41.1641V13.3633H37.707V18.0625H33.7578V5.38281H37.707V10.3281H41.1641V5.38281H45.125V18.0625Z"/>
<path d="M46.7891 11.6055C46.7891 10.3398 47.0352 9.21484 47.5273 8.23047C48.0195 7.23828 48.7266 6.47656 49.6484 5.94531C50.5703 5.41406 51.6523 5.14844 52.8945 5.14844C54.793 5.14844 56.2891 5.73828 57.3828 6.91797C58.4766 8.08984 59.0234 9.6875 59.0234 11.7109V11.8516C59.0234 13.8281 58.4727 15.3984 57.3711 16.5625C56.2773 17.7188 54.793 18.2969 52.918 18.2969C51.1133 18.2969 49.6641 17.7578 48.5703 16.6797C47.4766 15.5938 46.8867 14.125 46.8008 12.2734L46.7891 11.6055ZM50.7383 11.8516C50.7383 13.0234 50.9219 13.8828 51.2891 14.4297C51.6562 14.9766 52.1992 15.25 52.918 15.25C54.3242 15.25 55.043 14.168 55.0742 12.0039V11.6055C55.0742 9.33203 54.3477 8.19531 52.8945 8.19531C51.5742 8.19531 50.8594 9.17578 50.75 11.1367L50.7383 11.8516Z"/>
<path d="M75.2773 18.0625H71.1641V4.17578H65.0352V18.0625H60.9219V1H75.2773V18.0625Z"/>
<path d="M82.7305 12.5312L84.8398 5.38281H89.0703L83.9023 20.1836L83.6797 20.7227C82.9453 22.3633 81.6484 23.1836 79.7891 23.1836C79.2734 23.1836 78.7305 23.1055 78.1602 22.9492V20.125H78.6758C79.2305 20.125 79.6523 20.043 79.9414 19.8789C80.2383 19.7227 80.457 19.4375 80.5977 19.0234L80.9141 18.1797L76.5078 5.38281H80.7266L82.7305 12.5312Z"/>
<path d="M100.941 5.38281V18.0625H96.9922V8.42969H94.625L94.4141 12.3086C94.2656 14.2305 93.832 15.668 93.1133 16.6211C92.3945 17.5742 91.3281 18.0547 89.9141 18.0625H88.6719L88.625 15.0391L89.0352 14.9922C89.5586 14.9297 89.9453 14.582 90.1953 13.9492C90.4531 13.3086 90.6172 12.3438 90.6875 11.0547L90.9336 5.38281H100.941Z"/>
<path d="M107.328 8.86328H109.355C110.527 8.86328 111.559 9.05469 112.449 9.4375C113.34 9.82031 114.02 10.3633 114.488 11.0664C114.957 11.7695 115.191 12.5859 115.191 13.5156C115.191 14.8828 114.66 15.9844 113.598 16.8203C112.543 17.6484 111.102 18.0625 109.273 18.0625H103.355V5.38281H107.328V8.86328ZM107.328 11.8984V15.0391H109.332C109.934 15.0391 110.402 14.9023 110.738 14.6289C111.082 14.3477 111.254 13.9688 111.254 13.4922C111.254 13.0234 111.102 12.6406 110.797 12.3438C110.492 12.0469 110.004 11.8984 109.332 11.8984H107.328Z"/>
<path d="M122.023 15.25C122.578 15.25 123.008 15.1016 123.312 14.8047C123.617 14.5 123.766 14.0781 123.758 13.5391H127.461C127.461 14.9297 126.961 16.0703 125.961 16.9609C124.969 17.8516 123.688 18.2969 122.117 18.2969C120.273 18.2969 118.82 17.7188 117.758 16.5625C116.695 15.4062 116.164 13.8047 116.164 11.7578V11.5938C116.164 10.3125 116.398 9.18359 116.867 8.20703C117.344 7.22266 118.027 6.46875 118.918 5.94531C119.809 5.41406 120.863 5.14844 122.082 5.14844C123.73 5.14844 125.039 5.60547 126.008 6.51953C126.977 7.43359 127.461 8.67188 127.461 10.2344H123.758C123.758 9.57812 123.598 9.07422 123.277 8.72266C122.957 8.37109 122.527 8.19531 121.988 8.19531C120.965 8.19531 120.367 8.84766 120.195 10.1523C120.141 10.5664 120.113 11.1367 120.113 11.8633C120.113 13.1367 120.266 14.0195 120.57 14.5117C120.875 15.0039 121.359 15.25 122.023 15.25Z"/>
</mask>
<path d="M11.0586 11.3125H9.11328V18.0625H5V1H9.11328V7.59766H10.6953L13.9766 1H18.957L14.2695 8.875L19.543 18.0625H14.6797L11.0586 11.3125Z" fill="white"/>
<path d="M27.7578 5.38281H31.7188V18.0625H27.7578V10.6797L24.2773 18.0625H20.3047V5.38281H24.2773V12.7422L27.7578 5.38281Z" fill="white"/>
<path d="M45.125 18.0625H41.1641V13.3633H37.707V18.0625H33.7578V5.38281H37.707V10.3281H41.1641V5.38281H45.125V18.0625Z" fill="white"/>
<path d="M46.7891 11.6055C46.7891 10.3398 47.0352 9.21484 47.5273 8.23047C48.0195 7.23828 48.7266 6.47656 49.6484 5.94531C50.5703 5.41406 51.6523 5.14844 52.8945 5.14844C54.793 5.14844 56.2891 5.73828 57.3828 6.91797C58.4766 8.08984 59.0234 9.6875 59.0234 11.7109V11.8516C59.0234 13.8281 58.4727 15.3984 57.3711 16.5625C56.2773 17.7188 54.793 18.2969 52.918 18.2969C51.1133 18.2969 49.6641 17.7578 48.5703 16.6797C47.4766 15.5938 46.8867 14.125 46.8008 12.2734L46.7891 11.6055ZM50.7383 11.8516C50.7383 13.0234 50.9219 13.8828 51.2891 14.4297C51.6562 14.9766 52.1992 15.25 52.918 15.25C54.3242 15.25 55.043 14.168 55.0742 12.0039V11.6055C55.0742 9.33203 54.3477 8.19531 52.8945 8.19531C51.5742 8.19531 50.8594 9.17578 50.75 11.1367L50.7383 11.8516Z" fill="white"/>
<path d="M75.2773 18.0625H71.1641V4.17578H65.0352V18.0625H60.9219V1H75.2773V18.0625Z" fill="white"/>
<path d="M82.7305 12.5312L84.8398 5.38281H89.0703L83.9023 20.1836L83.6797 20.7227C82.9453 22.3633 81.6484 23.1836 79.7891 23.1836C79.2734 23.1836 78.7305 23.1055 78.1602 22.9492V20.125H78.6758C79.2305 20.125 79.6523 20.043 79.9414 19.8789C80.2383 19.7227 80.457 19.4375 80.5977 19.0234L80.9141 18.1797L76.5078 5.38281H80.7266L82.7305 12.5312Z" fill="white"/>
<path d="M100.941 5.38281V18.0625H96.9922V8.42969H94.625L94.4141 12.3086C94.2656 14.2305 93.832 15.668 93.1133 16.6211C92.3945 17.5742 91.3281 18.0547 89.9141 18.0625H88.6719L88.625 15.0391L89.0352 14.9922C89.5586 14.9297 89.9453 14.582 90.1953 13.9492C90.4531 13.3086 90.6172 12.3438 90.6875 11.0547L90.9336 5.38281H100.941Z" fill="white"/>
<path d="M107.328 8.86328H109.355C110.527 8.86328 111.559 9.05469 112.449 9.4375C113.34 9.82031 114.02 10.3633 114.488 11.0664C114.957 11.7695 115.191 12.5859 115.191 13.5156C115.191 14.8828 114.66 15.9844 113.598 16.8203C112.543 17.6484 111.102 18.0625 109.273 18.0625H103.355V5.38281H107.328V8.86328ZM107.328 11.8984V15.0391H109.332C109.934 15.0391 110.402 14.9023 110.738 14.6289C111.082 14.3477 111.254 13.9688 111.254 13.4922C111.254 13.0234 111.102 12.6406 110.797 12.3438C110.492 12.0469 110.004 11.8984 109.332 11.8984H107.328Z" fill="white"/>
<path d="M122.023 15.25C122.578 15.25 123.008 15.1016 123.312 14.8047C123.617 14.5 123.766 14.0781 123.758 13.5391H127.461C127.461 14.9297 126.961 16.0703 125.961 16.9609C124.969 17.8516 123.688 18.2969 122.117 18.2969C120.273 18.2969 118.82 17.7188 117.758 16.5625C116.695 15.4062 116.164 13.8047 116.164 11.7578V11.5938C116.164 10.3125 116.398 9.18359 116.867 8.20703C117.344 7.22266 118.027 6.46875 118.918 5.94531C119.809 5.41406 120.863 5.14844 122.082 5.14844C123.73 5.14844 125.039 5.60547 126.008 6.51953C126.977 7.43359 127.461 8.67188 127.461 10.2344H123.758C123.758 9.57812 123.598 9.07422 123.277 8.72266C122.957 8.37109 122.527 8.19531 121.988 8.19531C120.965 8.19531 120.367 8.84766 120.195 10.1523C120.141 10.5664 120.113 11.1367 120.113 11.8633C120.113 13.1367 120.266 14.0195 120.57 14.5117C120.875 15.0039 121.359 15.25 122.023 15.25Z" fill="white"/>
<path d="M11.0586 11.3125H9.11328V18.0625H5V1H9.11328V7.59766H10.6953L13.9766 1H18.957L14.2695 8.875L19.543 18.0625H14.6797L11.0586 11.3125Z" stroke="black" stroke-width="2" mask="url(#path-1-outside-1)"/>
<path d="M27.7578 5.38281H31.7188V18.0625H27.7578V10.6797L24.2773 18.0625H20.3047V5.38281H24.2773V12.7422L27.7578 5.38281Z" stroke="black" stroke-width="2" mask="url(#path-1-outside-1)"/>
<path d="M45.125 18.0625H41.1641V13.3633H37.707V18.0625H33.7578V5.38281H37.707V10.3281H41.1641V5.38281H45.125V18.0625Z" stroke="black" stroke-width="2" mask="url(#path-1-outside-1)"/>
<path d="M46.7891 11.6055C46.7891 10.3398 47.0352 9.21484 47.5273 8.23047C48.0195 7.23828 48.7266 6.47656 49.6484 5.94531C50.5703 5.41406 51.6523 5.14844 52.8945 5.14844C54.793 5.14844 56.2891 5.73828 57.3828 6.91797C58.4766 8.08984 59.0234 9.6875 59.0234 11.7109V11.8516C59.0234 13.8281 58.4727 15.3984 57.3711 16.5625C56.2773 17.7188 54.793 18.2969 52.918 18.2969C51.1133 18.2969 49.6641 17.7578 48.5703 16.6797C47.4766 15.5938 46.8867 14.125 46.8008 12.2734L46.7891 11.6055ZM50.7383 11.8516C50.7383 13.0234 50.9219 13.8828 51.2891 14.4297C51.6562 14.9766 52.1992 15.25 52.918 15.25C54.3242 15.25 55.043 14.168 55.0742 12.0039V11.6055C55.0742 9.33203 54.3477 8.19531 52.8945 8.19531C51.5742 8.19531 50.8594 9.17578 50.75 11.1367L50.7383 11.8516Z" stroke="black" stroke-width="2" mask="url(#path-1-outside-1)"/>
<path d="M75.2773 18.0625H71.1641V4.17578H65.0352V18.0625H60.9219V1H75.2773V18.0625Z" stroke="black" stroke-width="2" mask="url(#path-1-outside-1)"/>
<path d="M82.7305 12.5312L84.8398 5.38281H89.0703L83.9023 20.1836L83.6797 20.7227C82.9453 22.3633 81.6484 23.1836 79.7891 23.1836C79.2734 23.1836 78.7305 23.1055 78.1602 22.9492V20.125H78.6758C79.2305 20.125 79.6523 20.043 79.9414 19.8789C80.2383 19.7227 80.457 19.4375 80.5977 19.0234L80.9141 18.1797L76.5078 5.38281H80.7266L82.7305 12.5312Z" stroke="black" stroke-width="2" mask="url(#path-1-outside-1)"/>
<path d="M100.941 5.38281V18.0625H96.9922V8.42969H94.625L94.4141 12.3086C94.2656 14.2305 93.832 15.668 93.1133 16.6211C92.3945 17.5742 91.3281 18.0547 89.9141 18.0625H88.6719L88.625 15.0391L89.0352 14.9922C89.5586 14.9297 89.9453 14.582 90.1953 13.9492C90.4531 13.3086 90.6172 12.3438 90.6875 11.0547L90.9336 5.38281H100.941Z" stroke="black" stroke-width="2" mask="url(#path-1-outside-1)"/>
<path d="M107.328 8.86328H109.355C110.527 8.86328 111.559 9.05469 112.449 9.4375C113.34 9.82031 114.02 10.3633 114.488 11.0664C114.957 11.7695 115.191 12.5859 115.191 13.5156C115.191 14.8828 114.66 15.9844 113.598 16.8203C112.543 17.6484 111.102 18.0625 109.273 18.0625H103.355V5.38281H107.328V8.86328ZM107.328 11.8984V15.0391H109.332C109.934 15.0391 110.402 14.9023 110.738 14.6289C111.082 14.3477 111.254 13.9688 111.254 13.4922C111.254 13.0234 111.102 12.6406 110.797 12.3438C110.492 12.0469 110.004 11.8984 109.332 11.8984H107.328Z" stroke="black" stroke-width="2" mask="url(#path-1-outside-1)"/>
<path d="M122.023 15.25C122.578 15.25 123.008 15.1016 123.312 14.8047C123.617 14.5 123.766 14.0781 123.758 13.5391H127.461C127.461 14.9297 126.961 16.0703 125.961 16.9609C124.969 17.8516 123.688 18.2969 122.117 18.2969C120.273 18.2969 118.82 17.7188 117.758 16.5625C116.695 15.4062 116.164 13.8047 116.164 11.7578V11.5938C116.164 10.3125 116.398 9.18359 116.867 8.20703C117.344 7.22266 118.027 6.46875 118.918 5.94531C119.809 5.41406 120.863 5.14844 122.082 5.14844C123.73 5.14844 125.039 5.60547 126.008 6.51953C126.977 7.43359 127.461 8.67188 127.461 10.2344H123.758C123.758 9.57812 123.598 9.07422 123.277 8.72266C122.957 8.37109 122.527 8.19531 121.988 8.19531C120.965 8.19531 120.367 8.84766 120.195 10.1523C120.141 10.5664 120.113 11.1367 120.113 11.8633C120.113 13.1367 120.266 14.0195 120.57 14.5117C120.875 15.0039 121.359 15.25 122.023 15.25Z" stroke="black" stroke-width="2" mask="url(#path-1-outside-1)"/>
</g>
<defs>
<filter id="filter0_d" x="0" y="0" width="132.461" height="32.1836" filterUnits="userSpaceOnUse" color-interpolation-filters="sRGB">
<feFlood flood-opacity="0" result="BackgroundImageFix"/>
<feColorMatrix in="SourceAlpha" type="matrix" values="0 0 0 0 0 0 0 0 0 0 0 0 0 0 0 0 0 0 127 0"/>
<feOffset dy="4"/>
<feGaussianBlur stdDeviation="2"/>
<feColorMatrix type="matrix" values="0 0 0 0 0 0 0 0 0 0 0 0 0 0 0 0 0 0 0.25 0"/>
<feBlend mode="normal" in2="BackgroundImageFix" result="effect1_dropShadow"/>
<feBlend mode="normal" in="SourceGraphic" in2="effect1_dropShadow" result="shape"/>
</filter>
</defs>
</svg>
